<svg xmlns="http://www.w3.org/2000/svg" width="64" height="64" viewBox="0 0 64 64">
<defs><style>.cls-1{fill:#e1ecfa;}.cls-2{fill:#0072ff;}</style></defs>
<title>Stopwatch</title>
<g id="Stopwatch">
<circle class="cls-1" cx="32" cy="38" r="24"/>
<path class="cls-2" d="M58,38A26,26,0,0,1,24.72,63a2,2,0,0,1,1.12-3.84A22,22,0,1,0,32,16c-19.24,0-29.17,23-16,37.09V49a2,2,0,0,1,4,0v9a2,2,0,0,1-2,2H9a2,2,0,0,1,0-4h4.26a25.93,25.93,0,0,1,0-35.95L11,17.83C10.11,18.7,9.83,19,9,19a2,2,0,0,1-1.41-3.41l4-4a2,2,0,0,1,2.82,2.82l-.58.59,2.37,2.37A26,26,0,0,1,30,12.08c0-.41,0,1.48,0-4.07-3.71,0-3.79,0-4.45-.74S25,5.62,25,3.83s0-2.52.67-3.21A2.14,2.14,0,0,1,27.23,0C37.85,0,37.58-.21,38.45.73c.72.78.52,1.65.56,3.44s0,2.52-.67,3.21S36.82,8,34,8v4c0,.36,6.61-.14,13.8,5.37L50.17,15l-.58-.59a2,2,0,0,1,2.82-2.82l4,4a2,2,0,0,1-2.82,2.82L53,17.83l-2.22,2.22A25.88,25.88,0,0,1,58,38Z"/><path class="cls-2" d="M32,43a2,2,0,0,0-2-2H28l2.13-1.6a4.67,4.67,0,0,0-2.8-8.4H23a2,2,0,0,0,0,4c4.61,0,4.75-.16,5,.46s.26.37-7.16,5.94A2,2,0,0,0,22,45h8A2,2,0,0,0,32,43Z"/><path class="cls-2" d="M36,31a2,2,0,0,0-2,2v3a4,4,0,0,0,4,4h2v3a2,2,0,0,0,4,0V33a2,2,0,0,0-4,0v3H38V33A2,2,0,0,0,36,31Z"/>
</g></svg>